# xmcd
#
# Track frame offsets: 
#        150
#        11564
#        24054
#        35645
#        48694
#        60044
#        69108
#        80388
#        90020
#        101111
#        109951
#        123890
#        137410
#        149075
#        163227
#        171506
#        182809
#        193577
#        202947
#        216873
#        226115
#        240718
#        249134
#        258071
#
# Disc length: 3578 seconds
#
# Revision: 0
# Processed by: cddbd v1.5.2PL0 Copyright (c) Steve Scherf et al.
# Submitted via: ExactAudioCopyFreeDBPlugin 1.0
#
DISCID=380df818
DTITLE=Various Artist - South Texas Rhythm 'n' Soul Revue
DYEAR=2013
DGENRE=R&B
TTITLE0=Jackie Paine - Go Go Train
TTITLE1=Jean Knight - Doggin' Around
TTITLE2=Big Walter - Get To Gittin'
TTITLE3=Warren Storm - Tennessee Waltz
TTITLE4=Sunny and The Sunliners - Trick Bag
TTITLE5=Margo White - Pick Me Up On Your Way Down
TTITLE6=James Young - Long Gone
TTITLE7=The Insight - Out Of Sight
TTITLE8=Charles Barry - Time
TTITLE9=David King Thomas - If You're Looking For A Fool
TTITLE10=Johnny Adams - Let Them Talk
TTITLE11=Joe Masters - That Is Why The End Must Begin
TTITLE12=Rockin' Dave Allen - Irene
TTITLE13=Johnny Copeland - Slow Walk You Down
TTITLE14=TV and The Tribesmen - The Fat Man
TTITLE15=Margo White - If Only You Were Here
TTITLE16=Tee Bee Fisher - Five Long Years
TTITLE17=Johnny Adams - A Place Called Home
TTITLE18=Maxine Davis - I Found A Love
TTITLE19=Johnny Copeland - Sufferin' City (Version 2)
TTITLE20=Joe Melvin - Friends In Show Business
TTITLE21=Jackie Paine - Go Go Train (WMCA Version)
TTITLE22=Alton Valier - Neigbour Neigbour (Demo)
TTITLE23=Barbara Lynn - You'll Lose A Good Thing (Demo)
EXTD=
EXTT0=
EXTT1=
EXTT2=
EXTT3=
EXTT4=
EXTT5=
EXTT6=
EXTT7=
EXTT8=
EXTT9=
EXTT10=
EXTT11=
EXTT12=
EXTT13=
EXTT14=
EXTT15=
EXTT16=
EXTT17=
EXTT18=
EXTT19=
EXTT20=
EXTT21=
EXTT22=
EXTT23=
PLAYORDER=
